# xmcd
#
# Track frame offsets:
#	150
#	17644
#	31772
#	45461
#	61191
#	73995
#	86966
#	101335
#	112908
#	129140
#	141860
#	155205
#	170140
#	181052
#	194338
#	208307
#	219175
#	236093
#	247529
#	261567
#	273471
#	286139
#	303363
#	314917
#	328279
#
# Disc length: 4580 seconds
#
# Revision: 1
# Processed by: cddbd v1.5.2PL0 Copyright (c) Steve Scherf et al.
# Submitted via: audiograbber 1.83.01
#
DISCID=7511e219
DTITLE=Various Artist - Festa Italiana
DYEAR=2001
DGENRE=
TTITLE0=Reginelle Campagnola
TTITLE1=La Spagnola
TTITLE2=Marina
TTITLE3=Calabrisella
TTITLE4=Piemontesina
TTITLE5=Chitarra Romana
TTITLE6=Lu Maritiello
TTITLE7=Romagna Mia
TTITLE8=Quel Mazzolin Di Fiori
TTITLE9=La Luna Ammezu 'O Mari
TTITLE10=La Campagnola
TTITLE11=Violino Tzigano
TTITLE12=Paesanella
TTITLE13=Le Ragazze Italiane
TTITLE14=Il Cacciatore
TTITLE15=La Romanina
TTITLE16=Tanto Pe' Canta'
TTITLE17=Amore Dammi Quel Fazzolettino
TTITLE18=Chitarra Vagabonda
TTITLE19=Tarantella Balla Balla
TTITLE20=Mamma Mia Dammi Cento Lire
TTITLE21=Vola Colomba
TTITLE22=Saltarello Abruzzese
TTITLE23=Tango Delle Capinere
TTITLE24=Polenta E Baccala'
EXTD=
EXTT0=
EXTT1=
EXTT2=
EXTT3=
EXTT4=
EXTT5=
EXTT6=
EXTT7=
EXTT8=
EXTT9=
EXTT10=
EXTT11=
EXTT12=
EXTT13=
EXTT14=
EXTT15=
EXTT16=
EXTT17=
EXTT18=
EXTT19=
EXTT20=
EXTT21=
EXTT22=
EXTT23=
EXTT24=
PLAYORDER=
